<svg width="59" height="59" viewBox="0 0 59 59" fill="none" xmlns="http://www.w3.org/2000/svg">
<circle cx="29.5" cy="29.5" r="29.5" fill="#FAE0FE"/>
<path d="M33.7836 39.0624C33.3235 39.0624 32.9273 38.8962 32.5948 38.5638C32.2624 38.2313 32.0962 37.8351 32.0962 37.375V32.6586C32.0962 32.1985 32.2624 31.8023 32.5948 31.4698C32.9273 31.1374 33.3235 30.9712 33.7836 30.9712H38.5C38.9601 30.9712 39.3563 31.1374 39.6888 31.4698C40.0212 31.8023 40.1874 32.1985 40.1874 32.6586V37.375C40.1874 37.8351 40.0212 38.2313 39.6888 38.5638C39.3563 38.8962 38.9601 39.0624 38.5 39.0624H33.7836ZM33.7836 37.375H38.5V32.6586H33.7836V37.375ZM18.8125 35.8605V34.1731H28.5048V35.8605H18.8125ZM33.7836 28.0288C33.3235 28.0288 32.9273 27.8626 32.5948 27.5301C32.2624 27.1977 32.0962 26.8014 32.0962 26.3413V21.625C32.0962 21.1649 32.2624 20.7686 32.5948 20.4362C32.9273 20.1037 33.3235 19.9375 33.7836 19.9375H38.5C38.9601 19.9375 39.3563 20.1037 39.6888 20.4362C40.0212 20.7686 40.1874 21.1649 40.1874 21.625V26.3413C40.1874 26.8014 40.0212 27.1977 39.6888 27.5301C39.3563 27.8626 38.9601 28.0288 38.5 28.0288H33.7836ZM33.7836 26.3413H38.5V21.625H33.7836V26.3413ZM18.8125 24.8269V23.1394H28.5048V24.8269H18.8125Z" fill="#E129FF"/>
</svg>
