<svg width="59" height="59" viewBox="0 0 59 59" fill="none" xmlns="http://www.w3.org/2000/svg">
<circle cx="29.5" cy="29.5" r="29.5" fill="#F3F4FF"/>
<path d="M21.9712 39.0624C21.4101 39.0624 20.9309 38.8638 20.5336 38.4664C20.1362 38.069 19.9375 37.5898 19.9375 37.0288V21.9712C19.9375 21.4101 20.1362 20.9309 20.5336 20.5336C20.9309 20.1362 21.4101 19.9375 21.9712 19.9375H37.0288C37.5898 19.9375 38.069 20.1362 38.4664 20.5336C38.8638 20.9309 39.0624 21.4101 39.0624 21.9712V37.0288C39.0624 37.5898 38.8638 38.069 38.4664 38.4664C38.069 38.8638 37.5898 39.0624 37.0288 39.0624H21.9712ZM21.9712 37.375H37.0288C37.1297 37.375 37.2127 37.3425 37.2776 37.2776C37.3425 37.2127 37.375 37.1298 37.375 37.0288V23.875H21.625V37.0288C21.625 37.1298 21.6574 37.2127 21.7223 37.2776C21.7873 37.3425 21.8702 37.375 21.9712 37.375ZM23.875 29.2187V27.5313H35.125V29.2187H23.875ZM23.875 33.7187V32.0313H30.625V33.7187H23.875Z" fill="#5964E0"/>
</svg>
