<svg width="59" height="59" viewBox="0 0 59 59" fill="none" xmlns="http://www.w3.org/2000/svg">
<circle cx="29.5" cy="29.5" r="29.5" fill="#EBFBF0"/>
<path d="M16.5625 36.012V34.6404C16.5625 33.8918 16.9534 33.277 17.7351 32.796C18.5168 32.315 19.5358 32.0745 20.792 32.0745C20.9997 32.0745 21.2089 32.081 21.4195 32.094C21.63 32.107 21.8421 32.1322 22.0555 32.1697C21.8363 32.5202 21.6737 32.884 21.5677 33.2612C21.4617 33.6383 21.4087 34.0252 21.4087 34.4219V36.012H16.5625H16.5625ZM23.3125 36.012V34.4651C23.3125 33.9384 23.4603 33.457 23.756 33.0208C24.0517 32.5847 24.4779 32.2043 25.0346 31.8798C25.5913 31.5553 26.249 31.3119 27.0077 31.1496C27.7663 30.9874 28.5956 30.9063 29.4956 30.9063C30.4129 30.9063 31.2509 30.9874 32.0096 31.1496C32.7682 31.3119 33.4259 31.5553 33.9826 31.8798C34.5394 32.2043 34.9627 32.5847 35.2526 33.0208C35.5425 33.457 35.6874 33.9384 35.6874 34.4651V36.012H23.3125ZM37.5913 36.012V34.4251C37.5913 34.0019 37.5412 33.6032 37.4409 33.2288C37.3407 32.8545 37.1903 32.5014 36.9899 32.1697C37.2105 32.1322 37.4215 32.107 37.6227 32.094C37.8239 32.081 38.0226 32.0745 38.2187 32.0745C39.4749 32.0745 40.4921 32.3121 41.2703 32.7874C42.0484 33.2626 42.4374 33.8803 42.4374 34.6404V36.012H37.5913ZM25.0865 34.3245H33.9308V34.2055C33.8154 33.7512 33.3365 33.369 32.4942 33.0589C31.6519 32.7488 30.6538 32.5937 29.5 32.5937C28.3461 32.5937 27.348 32.7488 26.5057 33.0589C25.6634 33.369 25.1903 33.7512 25.0865 34.2055V34.3245ZM20.7892 30.982C20.2589 30.982 19.8059 30.7934 19.4302 30.4164C19.0545 30.0393 18.8666 29.586 18.8666 29.0565C18.8666 28.52 19.0551 28.0668 19.4322 27.6968C19.8093 27.3268 20.2626 27.1419 20.792 27.1419C21.3286 27.1419 21.7836 27.3268 22.1572 27.6968C22.5307 28.0668 22.7175 28.5211 22.7175 29.0597C22.7175 29.5826 22.5327 30.0337 22.1631 30.413C21.7935 30.7923 21.3355 30.982 20.7892 30.982ZM38.2187 30.982C37.6937 30.982 37.2416 30.7923 36.8622 30.413C36.4829 30.0337 36.2933 29.5826 36.2933 29.0597C36.2933 28.5211 36.4829 28.0668 36.8622 27.6968C37.2416 27.3268 37.6944 27.1419 38.2208 27.1419C38.7631 27.1419 39.2193 27.3268 39.5892 27.6968C39.9592 28.0668 40.1442 28.52 40.1442 29.0565C40.1442 29.586 39.9596 30.0393 39.5906 30.4164C39.2215 30.7934 38.7642 30.982 38.2187 30.982ZM29.5038 30.0625C28.6936 30.0625 28.0036 29.7786 27.4339 29.2107C26.8642 28.6428 26.5793 27.9532 26.5793 27.1419C26.5793 26.3144 26.8633 25.6207 27.4312 25.0609C27.9991 24.5011 28.6887 24.2213 29.5 24.2213C30.3275 24.2213 31.0211 24.5008 31.5809 25.0598C32.1407 25.6189 32.4206 26.3116 32.4206 27.1381C32.4206 27.9483 32.1411 28.6383 31.582 29.208C31.023 29.7777 30.3302 30.0625 29.5038 30.0625ZM29.5054 28.3751C29.8494 28.3751 30.14 28.2546 30.3773 28.0138C30.6145 27.7729 30.7331 27.4805 30.7331 27.1365C30.7331 26.7925 30.615 26.5019 30.3786 26.2646C30.1423 26.0273 29.8494 25.9087 29.5 25.9087C29.1596 25.9087 28.869 26.0269 28.6281 26.2632C28.3872 26.4996 28.2668 26.7925 28.2668 27.1419C28.2668 27.4823 28.3872 27.7729 28.6281 28.0138C28.869 28.2546 29.1614 28.3751 29.5054 28.3751Z" fill="#4EB06D"/>
</svg>
