<svg width="42" height="42" viewBox="0 0 42 42" fill="none" xmlns="http://www.w3.org/2000/svg">
<circle cx="21" cy="21" r="21" fill="#F3F4FF"/>
<path d="M24.8077 29.5C24.3987 29.5 24.0465 29.3522 23.751 29.0567C23.4555 28.7612 23.3077 28.4089 23.3077 28V23.8077C23.3077 23.3987 23.4555 23.0465 23.751 22.751C24.0465 22.4555 24.3987 22.3077 24.8077 22.3077H29C29.4089 22.3077 29.7612 22.4555 30.0567 22.751C30.3522 23.0465 30.5 23.3987 30.5 23.8077V28C30.5 28.4089 30.3522 28.7612 30.0567 29.0567C29.7612 29.3522 29.4089 29.5 29 29.5H24.8077ZM24.8077 28H29V23.8077H24.8077V28ZM11.5 26.6538V25.1538H20.1154V26.6538H11.5ZM24.8077 19.6923C24.3987 19.6923 24.0465 19.5445 23.751 19.249C23.4555 18.9535 23.3077 18.6013 23.3077 18.1923V14C23.3077 13.591 23.4555 13.2388 23.751 12.9433C24.0465 12.6478 24.3987 12.5 24.8077 12.5H29C29.4089 12.5 29.7612 12.6478 30.0567 12.9433C30.3522 13.2388 30.5 13.591 30.5 14V18.1923C30.5 18.6013 30.3522 18.9535 30.0567 19.249C29.7612 19.5445 29.4089 19.6923 29 19.6923H24.8077ZM24.8077 18.1923H29V14H24.8077V18.1923ZM11.5 16.8461V15.3462H20.1154V16.8461H11.5Z" fill="#5964E0"/>
</svg>
