<svg width="90" height="90" viewBox="0 0 90 90" fill="none" xmlns="http://www.w3.org/2000/svg">
<path opacity="0.15" d="M28.125 22.5C27.3791 22.5 26.6637 22.2037 26.1363 21.6762C25.6088 21.1488 25.3125 20.4334 25.3125 19.6875V16.875C25.3125 14.6372 26.2014 12.4911 27.7838 10.9088C29.3661 9.32645 31.5122 8.4375 33.75 8.4375H36.5625C37.3084 8.4375 38.0238 8.73382 38.5512 9.26126C39.0787 9.78871 39.375 10.5041 39.375 11.25C39.375 11.9959 39.0787 12.7113 38.5512 13.2387C38.0238 13.7662 37.3084 14.0625 36.5625 14.0625H33.75C33.0041 14.0625 32.2887 14.3588 31.7613 14.8863C31.2338 15.4137 30.9375 16.1291 30.9375 16.875V19.6875C30.9375 20.4334 30.6412 21.1488 30.1137 21.6762C29.5863 22.2037 28.8709 22.5 28.125 22.5Z" fill="#5964E0"/>
<path opacity="0.15" d="M73.125 64.6875H70.3125C69.5666 64.6875 68.8512 64.3912 68.3238 63.8637C67.7963 63.3363 67.5 62.6209 67.5 61.875C67.5 61.1291 67.7963 60.4137 68.3238 59.8863C68.8512 59.3588 69.5666 59.0625 70.3125 59.0625H73.125C73.8709 59.0625 74.5863 58.7662 75.1137 58.2387C75.6412 57.7113 75.9375 56.9959 75.9375 56.25V53.4375C75.9375 52.6916 76.2338 51.9762 76.7613 51.4488C77.2887 50.9213 78.0041 50.625 78.75 50.625C79.4959 50.625 80.2113 50.9213 80.7387 51.4488C81.2662 51.9762 81.5625 52.6916 81.5625 53.4375V56.25C81.5625 58.4878 80.6736 60.6339 79.0912 62.2162C77.5089 63.7986 75.3628 64.6875 73.125 64.6875Z" fill="#5964E0"/>
<path opacity="0.15" d="M78.75 22.5C78.0041 22.5 77.2887 22.2037 76.7613 21.6762C76.2338 21.1488 75.9375 20.4334 75.9375 19.6875V16.875C75.9375 16.1291 75.6412 15.4137 75.1137 14.8863C74.5863 14.3588 73.8709 14.0625 73.125 14.0625H70.3125C69.5666 14.0625 68.8512 13.7662 68.3238 13.2387C67.7963 12.7113 67.5 11.9959 67.5 11.25C67.5 10.5041 67.7963 9.78871 68.3238 9.26126C68.8512 8.73382 69.5666 8.4375 70.3125 8.4375H73.125C75.3628 8.4375 77.5089 9.32645 79.0912 10.9088C80.6736 12.4911 81.5625 14.6372 81.5625 16.875V19.6875C81.5625 20.4334 81.2662 21.1488 80.7387 21.6762C80.2113 22.2037 79.4959 22.5 78.75 22.5Z" fill="#5964E0"/>
<path opacity="0.15" d="M78.75 45C78.0041 45 77.2887 44.7037 76.7613 44.1762C76.2338 43.6488 75.9375 42.9334 75.9375 42.1875V30.9375C75.9375 30.1916 76.2338 29.4762 76.7613 28.9488C77.2887 28.4213 78.0041 28.125 78.75 28.125C79.4959 28.125 80.2113 28.4213 80.7387 28.9488C81.2662 29.4762 81.5625 30.1916 81.5625 30.9375V42.1875C81.5625 42.9334 81.2662 43.6488 80.7387 44.1762C80.2113 44.7037 79.4959 45 78.75 45Z" fill="#5964E0"/>
<path opacity="0.15" d="M59.0625 14.0625H47.8125C47.0666 14.0625 46.3512 13.7662 45.8238 13.2387C45.2963 12.7113 45 11.9959 45 11.25C45 10.5041 45.2963 9.78871 45.8238 9.26126C46.3512 8.73382 47.0666 8.4375 47.8125 8.4375H59.0625C59.8084 8.4375 60.5238 8.73382 61.0512 9.26126C61.5787 9.78871 61.875 10.5041 61.875 11.25C61.875 11.9959 61.5787 12.7113 61.0512 13.2387C60.5238 13.7662 59.8084 14.0625 59.0625 14.0625Z" fill="#5964E0"/>
<path d="M56.25 25.3125H16.875C14.6372 25.3125 12.4911 26.2014 10.9088 27.7838C9.32645 29.3661 8.4375 31.5122 8.4375 33.75V73.125C8.4375 75.3628 9.32645 77.5089 10.9088 79.0912C12.4911 80.6736 14.6372 81.5625 16.875 81.5625H56.25C58.4878 81.5625 60.6339 80.6736 62.2162 79.0912C63.7986 77.5089 64.6875 75.3628 64.6875 73.125V33.75C64.6875 31.5122 63.7986 29.3661 62.2162 27.7838C60.6339 26.2014 58.4878 25.3125 56.25 25.3125ZM45 56.25H39.375V61.875C39.375 62.6209 39.0787 63.3363 38.5512 63.8637C38.0238 64.3912 37.3084 64.6875 36.5625 64.6875C35.8166 64.6875 35.1012 64.3912 34.5738 63.8637C34.0463 63.3363 33.75 62.6209 33.75 61.875V56.25H28.125C27.3791 56.25 26.6637 55.9537 26.1363 55.4262C25.6088 54.8988 25.3125 54.1834 25.3125 53.4375C25.3125 52.6916 25.6088 51.9762 26.1363 51.4488C26.6637 50.9213 27.3791 50.625 28.125 50.625H33.75V45C33.75 44.2541 34.0463 43.5387 34.5738 43.0113C35.1012 42.4838 35.8166 42.1875 36.5625 42.1875C37.3084 42.1875 38.0238 42.4838 38.5512 43.0113C39.0787 43.5387 39.375 44.2541 39.375 45V50.625H45C45.7459 50.625 46.4613 50.9213 46.9887 51.4488C47.5162 51.9762 47.8125 52.6916 47.8125 53.4375C47.8125 54.1834 47.5162 54.8988 46.9887 55.4262C46.4613 55.9537 45.7459 56.25 45 56.25Z" fill="#5964E0"/>
</svg>
