<svg width="20" height="18" viewBox="0 0 20 18" fill="none" xmlns="http://www.w3.org/2000/svg">
<path d="M19.8507 8.31715C19.0456 6.57108 17.8664 5.02342 16.3966 3.78381L18.9232 1.25715L17.7441 0.0771484L14.9999 2.81882C13.481 1.94025 11.7545 1.48473 9.99989 1.49965C3.74989 1.49965 0.880726 6.71715 0.149059 8.31715C0.0508413 8.53157 0 8.76464 0 9.00048C0 9.23632 0.0508413 9.4694 0.149059 9.68381C0.954173 11.4299 2.13341 12.9775 3.60323 14.2171L1.07739 16.7438L2.25573 17.9221L4.99989 15.1805C6.51876 16.059 8.2453 16.5146 9.99989 16.4996C16.2499 16.4996 19.1191 11.2821 19.8507 9.68215C19.9488 9.46797 19.9995 9.23519 19.9995 8.99965C19.9995 8.7641 19.9488 8.53133 19.8507 8.31715V8.31715ZM1.66656 9.00881C2.29156 7.63798 4.74406 3.16632 9.99989 3.16632C11.3079 3.15867 12.5988 3.46382 13.7649 4.05631L12.2941 5.52715C11.494 4.99598 10.5348 4.75798 9.57925 4.85352C8.62369 4.94906 7.73061 5.37226 7.05156 6.05132C6.37251 6.73037 5.94931 7.62345 5.85376 8.57901C5.75822 9.53457 5.99623 10.4938 6.52739 11.2938L4.79489 13.0263C3.46187 11.9408 2.39229 10.5672 1.66656 9.00881V9.00881ZM12.4999 8.99965C12.4999 9.66269 12.2365 10.2986 11.7677 10.7674C11.2988 11.2363 10.6629 11.4996 9.99989 11.4996C9.62865 11.4982 9.26256 11.4127 8.92906 11.2496L12.2499 7.92881C12.413 8.26231 12.4985 8.62841 12.4999 8.99965V8.99965ZM7.49989 8.99965C7.49989 8.33661 7.76329 7.70072 8.23213 7.23188C8.70097 6.76304 9.33685 6.49965 9.99989 6.49965C10.3711 6.50109 10.7372 6.58656 11.0707 6.74965L7.74989 10.0705C7.5868 9.73698 7.50133 9.37089 7.49989 8.99965ZM9.99989 14.833C8.6919 14.8406 7.40102 14.5355 6.23489 13.943L7.70573 12.4721C8.50578 13.0033 9.46497 13.2413 10.4205 13.1458C11.3761 13.0502 12.2692 12.627 12.9482 11.948C13.6273 11.2689 14.0505 10.3758 14.146 9.42029C14.2416 8.46473 14.0036 7.50554 13.4724 6.70548L15.2041 4.97382C16.5397 6.06033 17.6099 7.43719 18.3332 8.99965C17.6966 10.3805 15.2432 14.833 9.99989 14.833Z" fill="#4D4E58"/>
</svg>
