<svg width="20" height="20" viewBox="0 0 20 20" fill="none" xmlns="http://www.w3.org/2000/svg">
<g clip-path="url(#clip0_284_31195)">
<path d="M19.8333 9.56521C19.725 9.27438 17.0833 2.45021 10 2.45021C2.91667 2.45021 0.271667 9.27438 0.166667 9.56521L0 10.0002L0.166667 10.4352C0.275 10.726 2.91667 17.5502 10 17.5502C17.0833 17.5502 19.7283 10.726 19.8333 10.4352L20 10.0002L19.8333 9.56521ZM10 15.071C5.485 15.071 3.29917 11.3094 2.675 10.0002C3.30083 8.68771 5.4875 4.92938 10 4.92938C14.5125 4.92938 16.6983 8.68688 17.325 10.0002C16.6983 11.3135 14.5125 15.071 10 15.071Z" fill="#4D4E58"/>
<path d="M10.0001 13.3331C11.841 13.3331 13.3334 11.8407 13.3334 9.99972C13.3334 8.15878 11.841 6.6664 10.0001 6.6664C8.15913 6.6664 6.66675 8.15878 6.66675 9.99972C6.66675 11.8407 8.15913 13.3331 10.0001 13.3331Z" fill="#4D4E58"/>
</g>
<defs>
<clipPath id="clip0_284_31195">
<rect width="20" height="20" fill="white"/>
</clipPath>
</defs>
</svg>
