<svg width="16" height="16" viewBox="0 0 16 16" fill="none" xmlns="http://www.w3.org/2000/svg">
<g clip-path="url(#clip0_552_4460)">
<path d="M14 2.66667H12.328L10.2707 0H5.72867L3.672 2.66667H2C1.46957 2.66667 0.960859 2.87738 0.585786 3.25245C0.210714 3.62753 0 4.13623 0 4.66667L0 16H16V4.66667C16 4.13623 15.7893 3.62753 15.4142 3.25245C15.0391 2.87738 14.5304 2.66667 14 2.66667V2.66667ZM6.38467 1.33333H9.616L10.644 2.66667H5.356L6.38467 1.33333ZM14.6667 14.6667H1.33333V4.66667C1.33333 4.48986 1.40357 4.32029 1.5286 4.19526C1.65362 4.07024 1.82319 4 2 4H14C14.1768 4 14.3464 4.07024 14.4714 4.19526C14.5964 4.32029 14.6667 4.48986 14.6667 4.66667V14.6667Z" fill="#5964E0"/>
<path d="M8 5.33301C7.20888 5.33301 6.43552 5.5676 5.77772 6.00713C5.11992 6.44666 4.60723 7.07137 4.30448 7.80227C4.00173 8.53318 3.92252 9.33745 4.07686 10.1134C4.2312 10.8893 4.61216 11.602 5.17157 12.1614C5.73099 12.7208 6.44372 13.1018 7.21964 13.2562C7.99557 13.4105 8.79983 13.3313 9.53074 13.0285C10.2616 12.7258 10.8864 12.2131 11.3259 11.5553C11.7654 10.8975 12 10.1241 12 9.33301C11.9989 8.27247 11.5772 7.25567 10.8273 6.50575C10.0773 5.75583 9.06054 5.33407 8 5.33301V5.33301ZM8 11.9997C7.47259 11.9997 6.95701 11.8433 6.51848 11.5503C6.07995 11.2572 5.73816 10.8408 5.53632 10.3535C5.33449 9.86623 5.28168 9.33005 5.38457 8.81277C5.48747 8.29548 5.74144 7.82033 6.11438 7.44739C6.48732 7.07445 6.96248 6.82047 7.47976 6.71758C7.99704 6.61469 8.53322 6.6675 9.02049 6.86933C9.50776 7.07116 9.92424 7.41296 10.2173 7.85149C10.5103 8.29002 10.6667 8.80559 10.6667 9.33301C10.6667 10.0403 10.3857 10.7185 9.88562 11.2186C9.38552 11.7187 8.70725 11.9997 8 11.9997Z" fill="#5964E0"/>
</g>
<defs>
<clipPath id="clip0_552_4460">
<rect width="16" height="16" fill="white"/>
</clipPath>
</defs>
</svg>
