<svg width="17" height="17" viewBox="0 0 17 17" fill="none" xmlns="http://www.w3.org/2000/svg">
<g id="fi-ss-menu-dots-vertical" clip-path="url(#clip0_516_5616)">
<path id="Vector" d="M8.49967 2.83333C9.28207 2.83333 9.91634 2.19907 9.91634 1.41667C9.91634 0.634263 9.28207 0 8.49967 0C7.71727 0 7.08301 0.634263 7.08301 1.41667C7.08301 2.19907 7.71727 2.83333 8.49967 2.83333Z" fill="#374957" stroke="#999A9F" stroke-width="21.3333"/>
<path id="Vector_2" d="M8.49967 9.91689C9.28207 9.91689 9.91634 9.28262 9.91634 8.50022C9.91634 7.71782 9.28207 7.08356 8.49967 7.08356C7.71727 7.08356 7.08301 7.71782 7.08301 8.50022C7.08301 9.28262 7.71727 9.91689 8.49967 9.91689Z" fill="#374957" stroke="#999A9F" stroke-width="21.3333"/>
<path id="Vector_3" d="M8.49967 16.9998C9.28207 16.9998 9.91634 16.3655 9.91634 15.5831C9.91634 14.8007 9.28207 14.1664 8.49967 14.1664C7.71727 14.1664 7.08301 14.8007 7.08301 15.5831C7.08301 16.3655 7.71727 16.9998 8.49967 16.9998Z" fill="#374957"/>
</g>
<defs>
<clipPath id="clip0_516_5616">
<rect width="17" height="17" fill="white"/>
</clipPath>
</defs>
</svg>
