<svg width="17" height="17" viewBox="0 0 17 17" fill="none" xmlns="http://www.w3.org/2000/svg">
<g clip-path="url(#clip0_516_6029)">
<path d="M8.49967 2.83333C9.28207 2.83333 9.91634 2.19907 9.91634 1.41667C9.91634 0.634263 9.28207 0 8.49967 0C7.71727 0 7.08301 0.634263 7.08301 1.41667C7.08301 2.19907 7.71727 2.83333 8.49967 2.83333Z" fill="#374957" stroke="#999A9F" stroke-width="21.3333"/>
<path d="M8.49967 9.91682C9.28207 9.91682 9.91634 9.28256 9.91634 8.50016C9.91634 7.71776 9.28207 7.0835 8.49967 7.0835C7.71727 7.0835 7.08301 7.71776 7.08301 8.50016C7.08301 9.28256 7.71727 9.91682 8.49967 9.91682Z" fill="#374957" stroke="#999A9F" stroke-width="21.3333"/>
<path d="M8.49967 16.9999C9.28207 16.9999 9.91634 16.3656 9.91634 15.5832C9.91634 14.8008 9.28207 14.1665 8.49967 14.1665C7.71727 14.1665 7.08301 14.8008 7.08301 15.5832C7.08301 16.3656 7.71727 16.9999 8.49967 16.9999Z" fill="#374957"/>
</g>
<defs>
<clipPath id="clip0_516_6029">
<rect width="17" height="17" fill="white"/>
</clipPath>
</defs>
</svg>
