<svg width="20" height="20" viewBox="0 0 20 20" fill="none" xmlns="http://www.w3.org/2000/svg">
<g clip-path="url(#clip0_408_39781)">
<path d="M8.81955 17.1083C8.03032 17.8764 6.97039 18.303 5.86909 18.2956C4.76779 18.2882 3.71367 17.8475 2.93481 17.0689C2.15594 16.2902 1.71496 15.2362 1.70727 14.1349C1.69958 13.0336 2.1258 11.9736 2.89372 11.1842L6.44538 7.62999L5.26622 6.45166L1.71538 10.0058C0.617277 11.1045 0.000586036 12.5944 0.000976748 14.1477C0.00136746 15.701 0.618807 17.1906 1.71747 18.2887C2.81613 19.3868 4.30601 20.0035 5.85936 20.0031C7.4127 20.0027 8.90228 19.3853 10.0004 18.2866L13.552 14.735L12.3737 13.5566L8.81955 17.1083Z" fill="#999A9F"/>
<path d="M18.2869 1.71801C17.7446 1.17202 17.0994 0.739074 16.3886 0.444256C15.6778 0.149437 14.9155 -0.0013921 14.146 0.000508815C13.3769 -0.00153429 12.615 0.148907 11.9044 0.443135C11.1938 0.737363 10.5486 1.16954 10.006 1.71468L6.4502 5.26718L7.62853 6.44634L11.1827 2.89468C11.5707 2.50438 12.0322 2.19493 12.5406 1.98422C13.0489 1.77352 13.5941 1.66576 14.1444 1.66718C14.9729 1.66745 15.7828 1.91337 16.4716 2.37384C17.1604 2.83432 17.6972 3.48867 18.0142 4.25419C18.3312 5.01971 18.4141 5.86203 18.2525 6.67466C18.0908 7.48729 17.6919 8.23375 17.106 8.81968L13.5544 12.3713L14.7335 13.5505L18.2852 10.0005C19.3819 8.90142 19.998 7.41226 19.9983 5.8596C19.9986 4.30695 19.3831 2.81754 18.2869 1.71801Z" fill="#999A9F"/>
<path d="M12.3714 6.45182L6.45117 12.3721L7.62969 13.5506L13.5499 7.63033L12.3714 6.45182Z" fill="#999A9F"/>
</g>
<defs>
<clipPath id="clip0_408_39781">
<rect width="20" height="20" fill="white"/>
</clipPath>
</defs>
</svg>
