<svg width="130" height="46" viewBox="0 0 130 46" fill="none" xmlns="http://www.w3.org/2000/svg">
<path d="M4.15669 29.112C2.36469 29.112 1.02069 27.894 0.852688 26.242H2.00069C2.15469 27.39 2.96669 28.034 4.15669 28.034C5.59869 28.034 6.52269 27.194 6.52269 25.794C6.52269 24.394 5.59869 23.47 4.17069 23.47C3.09269 23.47 2.32269 23.904 2.02869 24.618H1.04869L1.80469 19.2H7.05469V20.278H2.71469L2.28069 23.232C2.75669 22.784 3.56869 22.434 4.31069 22.434C6.35469 22.434 7.75469 23.806 7.75469 25.794C7.75469 27.782 6.28469 29.112 4.15669 29.112ZM10.8719 18.64V24.52H9.96188V20.026C9.86388 20.18 9.58388 20.25 9.34587 20.25H8.84188V19.438H9.28988C9.69588 19.438 9.93388 19.27 9.98988 18.64H10.8719ZM13.9344 18.64V24.52H13.0244V20.026C12.9264 20.18 12.6464 20.25 12.4084 20.25H11.9044V19.438H12.3524C12.7584 19.438 12.9964 19.27 13.0524 18.64H13.9344ZM27.7848 29H26.5948L24.6068 26.158L22.6188 29H21.4288L23.9908 25.29L21.6528 21.944H22.8988L24.6068 24.408L26.3148 21.944H27.5608L25.2228 25.29L27.7848 29Z" fill="#4D4E58"/>
<path d="M41 1C31.9307 21.1408 37.247 39.1127 41 45" stroke="#4D4E58"/>
<path d="M79 1C88.0693 21.1408 82.753 39.1127 79 45" stroke="#4D4E58"/>
<rect x="45.5" y="8.5" width="29" height="29" rx="3.5" stroke="#D2D2D6"/>
<path d="M94.45 18.64V24.52H93.54V20.026C93.442 20.18 93.162 20.25 92.924 20.25H92.42V19.438H92.868C93.274 19.438 93.512 19.27 93.568 18.64H94.45ZM97.5125 18.64V24.52H96.6025V20.026C96.5045 20.18 96.2245 20.25 95.9865 20.25H95.4825V19.438H95.9305C96.3365 19.438 96.5745 19.27 96.6305 18.64H97.5125ZM99.161 23.764V22.784H105.601V23.764H99.161ZM99.161 26.9V25.92H105.601V26.9H99.161ZM110.531 29.112C108.557 29.112 107.017 27.838 107.017 25.92H108.193C108.193 27.194 109.201 28.034 110.531 28.034C111.903 28.034 112.771 27.376 112.771 26.214C112.771 25.066 111.903 24.45 110.531 24.45H109.747V23.4H110.517C111.679 23.4 112.379 22.686 112.379 21.706C112.379 20.74 111.623 20.166 110.447 20.166C109.327 20.166 108.599 20.824 108.529 21.986H107.367C107.437 20.208 108.711 19.088 110.461 19.088C112.281 19.088 113.597 20.166 113.597 21.664C113.597 22.658 112.967 23.498 112.183 23.848C113.205 24.184 113.989 25.052 113.989 26.228C113.989 28.104 112.365 29.112 110.531 29.112ZM118.674 29.112C116.882 29.112 115.538 27.894 115.37 26.242H116.518C116.672 27.39 117.484 28.034 118.674 28.034C120.116 28.034 121.04 27.194 121.04 25.794C121.04 24.394 120.116 23.47 118.688 23.47C117.61 23.47 116.84 23.904 116.546 24.618H115.566L116.322 19.2H121.572V20.278H117.232L116.798 23.232C117.274 22.784 118.086 22.434 118.828 22.434C120.872 22.434 122.272 23.806 122.272 25.794C122.272 27.782 120.802 29.112 118.674 29.112ZM125.389 18.64V24.52H124.479V20.026C124.381 20.18 124.101 20.25 123.863 20.25H123.359V19.438H123.807C124.213 19.438 124.451 19.27 124.507 18.64H125.389ZM128.452 18.64V24.52H127.542V20.026C127.444 20.18 127.164 20.25 126.926 20.25H126.422V19.438H126.87C127.276 19.438 127.514 19.27 127.57 18.64H128.452Z" fill="#4D4E58"/>
</svg>
