<svg width="42" height="42" viewBox="0 0 42 42" fill="none" xmlns="http://www.w3.org/2000/svg">
<circle cx="21" cy="21" r="21" fill="#FAE0FE"/>
<path d="M14.3077 29.5C13.809 29.5 13.383 29.3233 13.0298 28.9701C12.6766 28.6169 12.5 28.191 12.5 27.6923V14.3077C12.5 13.809 12.6766 13.383 13.0298 13.0298C13.383 12.6766 13.809 12.5 14.3077 12.5H27.6923C28.191 12.5 28.6169 12.6766 28.9701 13.0298C29.3233 13.383 29.5 13.809 29.5 14.3077V27.6923C29.5 28.191 29.3233 28.6169 28.9701 28.9701C28.6169 29.3233 28.191 29.5 27.6923 29.5H14.3077ZM14.3077 28H27.6923C27.782 28 27.8557 27.9711 27.9134 27.9134C27.9711 27.8557 28 27.782 28 27.6923V16H14V27.6923C14 27.782 14.0288 27.8557 14.0865 27.9134C14.1442 27.9711 14.218 28 14.3077 28ZM16 20.75V19.25H26V20.75H16ZM16 24.75V23.25H22V24.75H16Z" fill="#E129FF"/>
</svg>
