<svg width="369" height="222" viewBox="0 0 369 222" fill="none" xmlns="http://www.w3.org/2000/svg">
<path d="M7.504 34H6.144L3.872 30.752L1.6 34H0.24L3.168 29.76L0.496 25.936H1.92L3.872 28.752L5.824 25.936H7.248L4.576 29.76L7.504 34ZM12.7465 28.016V26.896H20.1065V28.016H12.7465ZM12.7465 31.6V30.48H20.1065V31.6H12.7465Z" fill="#4D4E58"/>
<path d="M65 14.4545L65.9793 13.2424L68.4274 21L74.5685 3H137.5" stroke="#4D4E58"/>
<path d="M30.832 17.488V16.368H36.672V17.488H30.832ZM42.572 22.128C41.452 22.128 40.396 21.552 39.9 20.672V22H38.62V10.624H39.9V15.248C40.396 14.384 41.436 13.808 42.572 13.808C45.084 13.808 46.46 15.616 46.46 17.968C46.46 20.32 45.084 22.128 42.572 22.128ZM42.46 20.976C44.092 20.976 45.148 19.792 45.148 17.968C45.148 16.144 44.092 14.96 42.46 14.96C40.844 14.96 39.788 16.144 39.788 17.968C39.788 19.792 40.844 20.976 42.46 20.976Z" fill="#4D4E58"/>
<path d="M82.072 22.128C80.952 22.128 79.896 21.552 79.4 20.672V22H78.12V10.624H79.4V15.248C79.896 14.384 80.936 13.808 82.072 13.808C84.584 13.808 85.96 15.616 85.96 17.968C85.96 20.32 84.584 22.128 82.072 22.128ZM81.96 20.976C83.592 20.976 84.648 19.792 84.648 17.968C84.648 16.144 83.592 14.96 81.96 14.96C80.344 14.96 79.288 16.144 79.288 17.968C79.288 19.792 80.344 20.976 81.96 20.976ZM87.5549 14.432C87.4749 12.144 88.9469 10.672 91.2509 10.672C93.3629 10.672 94.8829 11.984 94.8829 14.016C94.8829 15.472 93.9869 16.704 92.2749 17.552L90.6749 18.368C89.7629 18.832 88.7389 19.68 88.7389 20.768H94.9469V22H87.4109V21.024C87.4109 19.024 88.9789 17.792 90.1309 17.216L91.8429 16.336C93.0429 15.728 93.4749 14.96 93.4749 13.984C93.4749 12.704 92.5309 11.872 91.2509 11.872C89.8109 11.872 88.8989 12.896 88.9629 14.432H87.5549ZM100.145 17.488V16.368H105.985V17.488H100.145ZM117.169 22V19.2H111.153V17.968L116.929 10.8H118.529V17.968H120.273V19.2H118.529V22H117.169ZM112.609 17.968H117.169V12.304L112.609 17.968ZM124.973 13.808C127.069 13.808 128.381 15.008 128.381 16.8V22H127.101V20.608C126.669 21.536 125.597 22.128 124.349 22.128C122.653 22.128 121.549 21.168 121.549 19.696C121.549 18.16 122.813 17.184 124.765 17.184H126.589C126.941 17.184 127.101 17.008 127.101 16.752C127.101 15.648 126.317 14.896 124.941 14.896C123.757 14.896 122.829 15.632 122.765 16.512H121.549C121.693 14.96 123.165 13.808 124.973 13.808ZM124.541 21.04C126.157 21.04 127.101 20.032 127.101 18.368V18.16H124.845C123.645 18.16 122.861 18.736 122.861 19.68C122.861 20.512 123.517 21.04 124.541 21.04ZM133.731 22.128C131.187 22.128 129.811 20.128 129.811 17.968C129.811 15.808 131.187 13.808 133.731 13.808C135.539 13.808 137.155 14.864 137.395 16.656H136.131C135.971 15.68 134.963 14.96 133.747 14.96C131.987 14.96 131.139 16.32 131.139 17.968C131.139 19.616 132.003 20.976 133.747 20.976C134.963 20.976 135.843 20.368 136.131 19.392H137.379C137.107 21.04 135.779 22.128 133.731 22.128Z" fill="#4D4E58"/>
<path d="M78.008 40.432C77.928 38.144 79.4 36.672 81.704 36.672C83.816 36.672 85.336 37.984 85.336 40.016C85.336 41.472 84.44 42.704 82.728 43.552L81.128 44.368C80.216 44.832 79.192 45.68 79.192 46.768H85.4V48H77.864V47.024C77.864 45.024 79.432 43.792 80.584 43.216L82.296 42.336C83.496 41.728 83.928 40.96 83.928 39.984C83.928 38.704 82.984 37.872 81.704 37.872C80.264 37.872 79.352 38.896 79.416 40.432H78.008ZM90.1291 39.808C92.2251 39.808 93.5371 41.008 93.5371 42.8V48H92.2571V46.608C91.8251 47.536 90.7531 48.128 89.5051 48.128C87.8091 48.128 86.7051 47.168 86.7051 45.696C86.7051 44.16 87.9691 43.184 89.9211 43.184H91.7451C92.0971 43.184 92.2571 43.008 92.2571 42.752C92.2571 41.648 91.4731 40.896 90.0971 40.896C88.9131 40.896 87.9851 41.632 87.9211 42.512H86.7051C86.8491 40.96 88.3211 39.808 90.1291 39.808ZM89.6971 47.04C91.3131 47.04 92.2571 46.032 92.2571 44.368V44.16H90.0011C88.8011 44.16 88.0171 44.736 88.0171 45.68C88.0171 46.512 88.6731 47.04 89.6971 47.04Z" fill="#4D4E58"/>
<path d="M59.544 13.368V14.488H56.424V17.608H55.304V14.488H52.184V13.368H55.304V10.232H56.424V13.368H59.544Z" fill="#4D4E58"/>
<path d="M52.832 21.488V20.368H58.672V21.488H52.832Z" fill="#4D4E58"/>
<path d="M30 29.0002L142 29" stroke="#4D4E58"/>
<path d="M173.184 28.016V26.896H180.544V28.016H173.184ZM173.184 31.6V30.48H180.544V31.6H173.184Z" fill="#4D4E58"/>
<path d="M246 14.4545L246.979 13.2424L249.427 21L255.568 3H318.5" stroke="#4D4E58"/>
<path d="M195.832 17.488V16.368H201.672V17.488H195.832ZM205.668 23.504C204.116 21.6 203.268 19.104 203.268 16.64C203.268 14.176 204.116 11.68 205.668 9.776L206.532 10.448C205.188 12.4 204.5 14.464 204.5 16.64C204.5 18.816 205.188 20.88 206.532 22.832L205.668 23.504ZM207.723 17.488V16.368H213.563V17.488H207.723ZM216.099 22C216.115 20.304 216.323 18.672 217.843 16.208L220.419 12.032H213.891V10.8H221.971V11.92L218.899 16.992C217.635 19.104 217.475 20.528 217.475 22H216.099ZM223.482 23.504L222.618 22.832C223.962 20.88 224.65 18.816 224.65 16.64C224.65 14.464 223.962 12.4 222.618 10.448L223.482 9.776C225.034 11.68 225.882 14.176 225.882 16.64C225.882 19.104 225.034 21.6 223.482 23.504Z" fill="#4D4E58"/>
<path d="M261.168 23.504C259.616 21.6 258.768 19.104 258.768 16.64C258.768 14.176 259.616 11.68 261.168 9.776L262.032 10.448C260.688 12.4 260 14.464 260 16.64C260 18.816 260.688 20.88 262.032 22.832L261.168 23.504ZM263.223 17.488V16.368H269.063V17.488H263.223ZM271.599 22C271.615 20.304 271.823 18.672 273.343 16.208L275.919 12.032H269.391V10.8H277.471V11.92L274.399 16.992C273.135 19.104 272.975 20.528 272.975 22H271.599ZM278.982 23.504L278.118 22.832C279.462 20.88 280.15 18.816 280.15 16.64C280.15 14.464 279.462 12.4 278.118 10.448L278.982 9.776C280.534 11.68 281.382 14.176 281.382 16.64C281.382 19.104 280.534 21.6 278.982 23.504ZM282.684 12.416C282.652 10.976 283.564 10.08 284.988 10.08C286.316 10.08 287.26 10.896 287.26 12.128C287.26 13.024 286.732 13.728 285.676 14.256L284.78 14.72C284.3 14.96 283.74 15.408 283.724 15.952H287.276V16.88H282.652V16.144C282.636 14.976 283.58 14.256 284.252 13.92L285.292 13.392C285.916 13.056 286.188 12.64 286.188 12.112C286.188 11.424 285.692 10.976 284.988 10.976C284.204 10.976 283.724 11.552 283.756 12.416H282.684ZM292.254 17.488V16.368H298.094V17.488H292.254ZM309.278 22V19.2H303.262V17.968L309.038 10.8H310.638V17.968H312.382V19.2H310.638V22H309.278ZM304.718 17.968H309.278V12.304L304.718 17.968ZM319.887 23.504C318.335 21.6 317.487 19.104 317.487 16.64C317.487 14.176 318.335 11.68 319.887 9.776L320.751 10.448C319.407 12.4 318.719 14.464 318.719 16.64C318.719 18.816 319.407 20.88 320.751 22.832L319.887 23.504ZM322.117 14.432C322.037 12.144 323.509 10.672 325.813 10.672C327.925 10.672 329.445 11.984 329.445 14.016C329.445 15.472 328.549 16.704 326.837 17.552L325.237 18.368C324.325 18.832 323.301 19.68 323.301 20.768H329.509V22H321.973V21.024C321.973 19.024 323.541 17.792 324.693 17.216L326.405 16.336C327.605 15.728 328.037 14.96 328.037 13.984C328.037 12.704 327.093 11.872 325.813 11.872C324.373 11.872 323.461 12.896 323.525 14.432H322.117ZM331.279 23.504L330.415 22.832C331.759 20.88 332.447 18.816 332.447 16.64C332.447 14.464 331.759 12.4 330.415 10.448L331.279 9.776C332.831 11.68 333.679 14.176 333.679 16.64C333.679 19.104 332.831 21.6 331.279 23.504ZM341.434 23.504C339.882 21.6 339.034 19.104 339.034 16.64C339.034 14.176 339.882 11.68 341.434 9.776L342.298 10.448C340.954 12.4 340.266 14.464 340.266 16.64C340.266 18.816 340.954 20.88 342.298 22.832L341.434 23.504ZM343.488 17.488V16.368H349.328V17.488H343.488ZM354.844 22.128C352.796 22.128 351.26 20.736 351.068 18.848H352.38C352.556 20.16 353.484 20.896 354.844 20.896C356.492 20.896 357.548 19.936 357.548 18.336C357.548 16.736 356.492 15.68 354.86 15.68C353.628 15.68 352.748 16.176 352.412 16.992H351.292L352.156 10.8H358.156V12.032H353.196L352.7 15.408C353.244 14.896 354.172 14.496 355.02 14.496C357.356 14.496 358.956 16.064 358.956 18.336C358.956 20.608 357.276 22.128 354.844 22.128ZM360.935 23.504L360.071 22.832C361.415 20.88 362.103 18.816 362.103 16.64C362.103 14.464 361.415 12.4 360.071 10.448L360.935 9.776C362.487 11.68 363.335 14.176 363.335 16.64C363.335 19.104 362.487 21.6 360.935 23.504Z" fill="#4D4E58"/>
<path d="M265.008 40.432C264.928 38.144 266.4 36.672 268.704 36.672C270.816 36.672 272.336 37.984 272.336 40.016C272.336 41.472 271.44 42.704 269.728 43.552L268.128 44.368C267.216 44.832 266.192 45.68 266.192 46.768H272.4V48H264.864V47.024C264.864 45.024 266.432 43.792 267.584 43.216L269.296 42.336C270.496 41.728 270.928 40.96 270.928 39.984C270.928 38.704 269.984 37.872 268.704 37.872C267.264 37.872 266.352 38.896 266.416 40.432H265.008ZM279.934 49.504C278.382 47.6 277.534 45.104 277.534 42.64C277.534 40.176 278.382 37.68 279.934 35.776L280.798 36.448C279.454 38.4 278.766 40.464 278.766 42.64C278.766 44.816 279.454 46.88 280.798 48.832L279.934 49.504ZM282.164 40.432C282.084 38.144 283.556 36.672 285.86 36.672C287.972 36.672 289.492 37.984 289.492 40.016C289.492 41.472 288.596 42.704 286.884 43.552L285.284 44.368C284.372 44.832 283.348 45.68 283.348 46.768H289.556V48H282.02V47.024C282.02 45.024 283.588 43.792 284.74 43.216L286.452 42.336C287.652 41.728 288.084 40.96 288.084 39.984C288.084 38.704 287.14 37.872 285.86 37.872C284.42 37.872 283.508 38.896 283.572 40.432H282.164ZM291.325 49.504L290.461 48.832C291.805 46.88 292.493 44.816 292.493 42.64C292.493 40.464 291.805 38.4 290.461 36.448L291.325 35.776C292.877 37.68 293.725 40.176 293.725 42.64C293.725 45.104 292.877 47.6 291.325 49.504Z" fill="#4D4E58"/>
<path d="M238.544 13.368V14.488H235.424V17.608H234.304V14.488H231.184V13.368H234.304V10.232H235.424V13.368H238.544Z" fill="#4D4E58"/>
<path d="M231.832 21.488V20.368H237.672V21.488H231.832Z" fill="#4D4E58"/>
<path d="M190 29L369 29" stroke="#4D4E58"/>
<path d="M1.184 113.016V111.896H8.544V113.016H1.184ZM1.184 116.6V115.48H8.544V116.6H1.184Z" fill="#4D4E58"/>
<path d="M68.544 133V130.2H62.528V128.968L68.304 121.8H69.904V128.968H71.648V130.2H69.904V133H68.544ZM63.984 128.968H68.544V123.304L63.984 128.968Z" fill="#4D4E58"/>
<path d="M51 99.4545L51.9793 98.2424L54.4274 106L60.5685 88H112" stroke="#4D4E58"/>
<path d="M25.8331 107C25.8491 105.304 26.0571 103.672 27.5771 101.208L30.1531 97.032H23.6251V95.8H31.7051V96.92L28.6331 101.992C27.3691 104.104 27.2091 105.528 27.2091 107H25.8331Z" fill="#4D4E58"/>
<path d="M69.544 107V104.2H63.528V102.968L69.304 95.8H70.904V102.968H72.648V104.2H70.904V107H69.544ZM64.984 102.968H69.544V97.304L64.984 102.968ZM77.5999 103.288C75.2799 103.288 73.6479 101.672 73.6479 99.48C73.6479 97.272 75.3439 95.672 77.6639 95.672C80.2239 95.672 81.8079 97.72 81.8079 100.808C81.8079 105.016 79.9199 107.144 77.4559 107.144C75.3919 107.144 73.8719 105.912 73.5839 104.152H74.9439C75.1839 105.24 76.0959 105.928 77.4239 105.928C79.2319 105.928 80.4319 104.008 80.5279 101.544C80.0639 102.568 78.8319 103.288 77.5999 103.288ZM77.6479 96.904C76.1279 96.904 75.0559 97.976 75.0559 99.496C75.0559 100.984 76.1279 102.056 77.6479 102.056C79.1679 102.056 80.2399 100.984 80.2399 99.496C80.2399 97.976 79.1679 96.904 77.6479 96.904ZM91.2628 101.368V102.488H88.1428V105.608H87.0228V102.488H83.9028V101.368H87.0228V98.232H88.1428V101.368H91.2628ZM98.9971 107V104.2H92.9811V102.968L98.7571 95.8H100.357V102.968H102.101V104.2H100.357V107H98.9971ZM94.4371 102.968H98.9971V97.304L94.4371 102.968ZM107.201 107.128C104.497 107.128 103.393 105.272 103.393 101.848V100.952C103.393 97.528 104.497 95.672 107.201 95.672H107.761C110.497 95.672 111.585 97.528 111.585 100.952V101.848C111.585 105.272 110.497 107.128 107.761 107.128H107.201ZM107.249 105.896H107.745C109.489 105.896 110.225 104.6 110.225 102.008V100.792C110.225 98.2 109.489 96.904 107.745 96.904H107.249C105.505 96.904 104.769 98.2 104.769 100.792V102.008C104.769 104.6 105.505 105.896 107.249 105.896Z" fill="#4D4E58"/>
<path d="M43.544 98.368V99.488H40.424V102.608H39.304V99.488H36.184V98.368H39.304V95.232H40.424V98.368H43.544Z" fill="#4D4E58"/>
<path d="M36.832 106.488V105.368H42.672V106.488H36.832Z" fill="#4D4E58"/>
<path d="M18 114L117 114" stroke="#4D4E58"/>
<path d="M5.438 201.128C3.054 201.128 1.342 199.384 1.342 196.968C1.342 194.536 3.054 192.808 5.438 192.808C7.838 192.808 9.55 194.536 9.55 196.968C9.55 199.384 7.838 201.128 5.438 201.128ZM5.438 199.976C7.102 199.976 8.238 198.728 8.238 196.968C8.238 195.208 7.102 193.96 5.438 193.96C3.79 193.96 2.654 195.208 2.654 196.968C2.654 198.728 3.79 199.976 5.438 199.976ZM15.6926 194.072H14.5726C12.9406 194.072 12.4766 195.544 12.4766 197.448V201H11.1966V192.936H12.4766V194.568C12.8126 193.464 13.4846 192.936 14.6686 192.936H15.6926V194.072Z" fill="#4D4E58"/>
<path d="M60.544 215V212.2H54.528V210.968L60.304 203.8H61.904V210.968H63.648V212.2H61.904V215H60.544ZM55.984 210.968H60.544V205.304L55.984 210.968Z" fill="#4D4E58"/>
<path d="M57 181.455L57.9793 180.242L60.4274 188L66.5685 170H91" stroke="#4D4E58"/>
<path d="M31.8331 189C31.8491 187.304 32.0571 185.672 33.5771 183.208L36.1531 179.032H29.6251V177.8H37.7051V178.92L34.6331 183.992C33.3691 186.104 33.2091 187.528 33.2091 189H31.8331Z" fill="#4D4E58"/>
<path d="M75.544 189V186.2H69.528V184.968L75.304 177.8H76.904V184.968H78.648V186.2H76.904V189H75.544ZM70.984 184.968H75.544V179.304L70.984 184.968ZM83.5999 185.288C81.2799 185.288 79.6479 183.672 79.6479 181.48C79.6479 179.272 81.3439 177.672 83.6639 177.672C86.2239 177.672 87.8079 179.72 87.8079 182.808C87.8079 187.016 85.9199 189.144 83.4559 189.144C81.3919 189.144 79.8719 187.912 79.5839 186.152H80.9439C81.1839 187.24 82.0959 187.928 83.4239 187.928C85.2319 187.928 86.4319 186.008 86.5279 183.544C86.0639 184.568 84.8319 185.288 83.5999 185.288ZM83.6479 178.904C82.1279 178.904 81.0559 179.976 81.0559 181.496C81.0559 182.984 82.1279 184.056 83.6479 184.056C85.1679 184.056 86.2399 182.984 86.2399 181.496C86.2399 179.976 85.1679 178.904 83.6479 178.904Z" fill="#4D4E58"/>
<path d="M49.544 183.368V184.488H46.424V187.608H45.304V184.488H42.184V183.368H45.304V180.232H46.424V183.368H49.544Z" fill="#4D4E58"/>
<path d="M24 196L96 196" stroke="#4D4E58"/>
<path d="M148.184 113.016V111.896H155.544V113.016H148.184ZM148.184 116.6V115.48H155.544V116.6H148.184Z" fill="#4D4E58"/>
<path d="M201.544 133V130.2H195.528V128.968L201.304 121.8H202.904V128.968H204.648V130.2H202.904V133H201.544ZM196.984 128.968H201.544V123.304L196.984 128.968Z" fill="#4D4E58"/>
<path d="M198 99.4545L198.979 98.2424L201.427 106L207.568 88L231.5 88" stroke="#4D4E58"/>
<path d="M172.833 107C172.849 105.304 173.057 103.672 174.577 101.208L177.153 97.032H170.625V95.8H178.705V96.92L175.633 101.992C174.369 104.104 174.209 105.528 174.209 107H172.833Z" fill="#4D4E58"/>
<path d="M214.88 107.128C212.72 107.128 210.896 105.944 210.896 103.816C210.896 102.456 211.808 101.368 212.976 100.968C212.08 100.536 211.344 99.736 211.344 98.616C211.344 96.888 212.784 95.672 214.88 95.672C216.976 95.672 218.416 96.888 218.416 98.616C218.416 99.736 217.68 100.536 216.784 100.968C217.952 101.368 218.848 102.456 218.848 103.816C218.848 105.944 217.04 107.128 214.88 107.128ZM214.88 100.44C216.208 100.44 217.056 99.752 217.056 98.632C217.056 97.528 216.208 96.872 214.88 96.872C213.552 96.872 212.704 97.528 212.704 98.632C212.704 99.752 213.552 100.44 214.88 100.44ZM214.88 105.896C216.448 105.896 217.456 105.112 217.456 103.816C217.456 102.488 216.448 101.688 214.88 101.688C213.312 101.688 212.288 102.488 212.288 103.816C212.288 105.112 213.312 105.896 214.88 105.896ZM224.366 103.288C222.046 103.288 220.414 101.672 220.414 99.48C220.414 97.272 222.11 95.672 224.43 95.672C226.99 95.672 228.574 97.72 228.574 100.808C228.574 105.016 226.686 107.144 224.222 107.144C222.158 107.144 220.638 105.912 220.35 104.152H221.71C221.95 105.24 222.862 105.928 224.19 105.928C225.998 105.928 227.198 104.008 227.294 101.544C226.83 102.568 225.598 103.288 224.366 103.288ZM224.414 96.904C222.894 96.904 221.822 97.976 221.822 99.496C221.822 100.984 222.894 102.056 224.414 102.056C225.934 102.056 227.006 100.984 227.006 99.496C227.006 97.976 225.934 96.904 224.414 96.904Z" fill="#4D4E58"/>
<path d="M190.544 98.368V99.488H187.424V102.608H186.304V99.488H183.184V98.368H186.304V95.232H187.424V98.368H190.544Z" fill="#4D4E58"/>
<path d="M183.832 106.488V105.368H189.672V106.488H183.832Z" fill="#4D4E58"/>
<path d="M165 114L235.5 114" stroke="#4D4E58"/>
<path d="M127.184 195.016V193.896H134.544V195.016H127.184ZM127.184 198.6V197.48H134.544V198.6H127.184Z" fill="#4D4E58"/>
<path d="M148.576 201.128C145.872 201.128 144.768 199.272 144.768 195.848V194.952C144.768 191.528 145.872 189.672 148.576 189.672H149.136C151.872 189.672 152.96 191.528 152.96 194.952V195.848C152.96 199.272 151.872 201.128 149.136 201.128H148.576ZM148.624 199.896H149.12C150.864 199.896 151.6 198.6 151.6 196.008V194.792C151.6 192.2 150.864 190.904 149.12 190.904H148.624C146.88 190.904 146.144 192.2 146.144 194.792V196.008C146.144 198.6 146.88 199.896 148.624 199.896ZM155.03 199.496H156.454V201H155.03V199.496ZM162.87 193.512C165.19 193.512 166.806 195.128 166.806 197.32C166.806 199.528 165.11 201.128 162.806 201.128C160.246 201.128 158.646 199.08 158.646 195.992C158.646 191.784 160.534 189.656 163.014 189.656C165.078 189.656 166.582 190.872 166.886 192.648H165.51C165.27 191.56 164.358 190.872 163.03 190.872C161.238 190.872 160.038 192.792 159.926 195.256C160.406 194.216 161.622 193.512 162.87 193.512ZM162.806 199.896C164.326 199.896 165.398 198.808 165.398 197.304C165.398 195.816 164.326 194.744 162.806 194.744C161.302 194.744 160.214 195.816 160.214 197.304C160.214 198.808 161.302 199.896 162.806 199.896ZM172.373 201.128C169.669 201.128 168.565 199.272 168.565 195.848V194.952C168.565 191.528 169.669 189.672 172.373 189.672H172.933C175.669 189.672 176.757 191.528 176.757 194.952V195.848C176.757 199.272 175.669 201.128 172.933 201.128H172.373ZM172.421 199.896H172.917C174.661 199.896 175.397 198.6 175.397 196.008V194.792C175.397 192.2 174.661 190.904 172.917 190.904H172.421C170.677 190.904 169.941 192.2 169.941 194.792V196.008C169.941 198.6 170.677 199.896 172.421 199.896ZM182.411 201.128C180.251 201.128 178.427 199.944 178.427 197.816C178.427 196.456 179.339 195.368 180.507 194.968C179.611 194.536 178.875 193.736 178.875 192.616C178.875 190.888 180.315 189.672 182.411 189.672C184.507 189.672 185.947 190.888 185.947 192.616C185.947 193.736 185.211 194.536 184.315 194.968C185.483 195.368 186.379 196.456 186.379 197.816C186.379 199.944 184.571 201.128 182.411 201.128ZM182.411 194.44C183.739 194.44 184.587 193.752 184.587 192.632C184.587 191.528 183.739 190.872 182.411 190.872C181.083 190.872 180.235 191.528 180.235 192.632C180.235 193.752 181.083 194.44 182.411 194.44ZM182.411 199.896C183.979 199.896 184.987 199.112 184.987 197.816C184.987 196.488 183.979 195.688 182.411 195.688C180.843 195.688 179.819 196.488 179.819 197.816C179.819 199.112 180.843 199.896 182.411 199.896ZM191.969 201.128C189.921 201.128 188.385 199.736 188.193 197.848H189.505C189.681 199.16 190.609 199.896 191.969 199.896C193.617 199.896 194.673 198.936 194.673 197.336C194.673 195.736 193.617 194.68 191.985 194.68C190.753 194.68 189.873 195.176 189.537 195.992H188.417L189.281 189.8H195.281V191.032H190.321L189.825 194.408C190.369 193.896 191.297 193.496 192.145 193.496C194.481 193.496 196.081 195.064 196.081 197.336C196.081 199.608 194.401 201.128 191.969 201.128Z" fill="#4D4E58"/>
</svg>
