<svg width="22" height="21" viewBox="0 0 22 21" fill="none" xmlns="http://www.w3.org/2000/svg">
<path d="M6.6668 9.79166C6.93207 9.79166 7.15811 9.69826 7.34491 9.51146C7.53172 9.32466 7.62512 9.09862 7.62512 8.83335C7.62512 8.56808 7.53172 8.34204 7.34491 8.15523C7.15811 7.96843 6.93207 7.87503 6.6668 7.87503C6.40153 7.87503 6.17549 7.96843 5.98869 8.15523C5.80189 8.34204 5.70849 8.56808 5.70849 8.83335C5.70849 9.09862 5.80189 9.32466 5.98869 9.51146C6.17549 9.69826 6.40153 9.79166 6.6668 9.79166ZM11.0001 9.79166C11.2654 9.79166 11.4914 9.69826 11.6782 9.51146C11.8651 9.32466 11.9585 9.09862 11.9585 8.83335C11.9585 8.56808 11.8651 8.34204 11.6782 8.15523C11.4914 7.96843 11.2654 7.87503 11.0001 7.87503C10.7349 7.87503 10.5088 7.96843 10.322 8.15523C10.1352 8.34204 10.0418 8.56808 10.0418 8.83335C10.0418 9.09862 10.1352 9.32466 10.322 9.51146C10.5088 9.69826 10.7349 9.79166 11.0001 9.79166ZM15.3335 9.79166C15.5987 9.79166 15.8248 9.69826 16.0116 9.51146C16.1984 9.32466 16.2918 9.09862 16.2918 8.83335C16.2918 8.56808 16.1984 8.34204 16.0116 8.15523C15.8248 7.96843 15.5987 7.87503 15.3335 7.87503C15.0682 7.87503 14.8422 7.96843 14.6554 8.15523C14.4686 8.34204 14.3752 8.56808 14.3752 8.83335C14.3752 9.09862 14.4686 9.32466 14.6554 9.51146C14.8422 9.69826 15.0682 9.79166 15.3335 9.79166ZM0.708496 20.7916V2.66672C0.708496 2.11949 0.898079 1.65629 1.27725 1.27712C1.65641 0.897957 2.11961 0.708374 2.66684 0.708374H19.3334C19.8807 0.708374 20.3439 0.897957 20.723 1.27712C21.1022 1.65629 21.2918 2.11949 21.2918 2.66672V15C21.2918 15.5472 21.1022 16.0104 20.723 16.3896C20.3439 16.7687 19.8807 16.9583 19.3334 16.9583H4.54182L0.708496 20.7916ZM3.85016 15.3333H19.3334C19.4168 15.3333 19.4932 15.2986 19.5626 15.2292C19.6321 15.1597 19.6668 15.0833 19.6668 15V2.66672C19.6668 2.58337 19.6321 2.50697 19.5626 2.43751C19.4932 2.36807 19.4168 2.33335 19.3334 2.33335H2.66684C2.58349 2.33335 2.50709 2.36807 2.43763 2.43751C2.36819 2.50697 2.33347 2.58337 2.33347 2.66672V16.8334L3.85016 15.3333Z" fill="black"/>
</svg>
