<svg width="22" height="22" viewBox="0 0 22 22" fill="none" xmlns="http://www.w3.org/2000/svg">
<path d="M0.833496 8.73959C0.833496 7.14239 1.17273 5.6681 1.85121 4.31671C2.52966 2.96533 3.44527 1.82436 4.59803 0.893815L5.60011 2.15836C4.63484 2.93892 3.86992 3.89587 3.30534 5.0292C2.74076 6.16252 2.45847 7.39932 2.45847 8.73959H0.833496ZM19.5418 8.73959C19.5418 7.39932 19.2595 6.16079 18.6949 5.02399C18.1303 3.88718 17.3654 2.9285 16.4001 2.14796L17.4022 0.893815C18.555 1.82436 19.4706 2.96533 20.149 4.31671C20.8275 5.6681 21.1667 7.14239 21.1667 8.73959H19.5418ZM2.87515 18.4583V16.8334H4.83349V8.75001C4.83349 7.29307 5.28313 6.00488 6.18243 4.88544C7.08174 3.76599 8.23626 3.05003 9.64598 2.73754V2.06254C9.64598 1.68754 9.77792 1.36811 10.0418 1.10422C10.3057 0.840325 10.6251 0.708374 11.0001 0.708374C11.3751 0.708374 11.6946 0.840325 11.9584 1.10422C12.2223 1.36811 12.3543 1.68754 12.3543 2.06254V2.73754C13.764 3.05003 14.9185 3.76599 15.8178 4.88544C16.7171 6.00488 17.1667 7.29307 17.1667 8.75001V16.8334H19.1251V18.4583H2.87515ZM11.0001 21.5C10.4598 21.5 9.99839 21.3087 9.61575 20.926C9.23312 20.5434 9.0418 20.0819 9.0418 19.5417H12.9584C12.9584 20.0819 12.7671 20.5434 12.3845 20.926C12.0018 21.3087 11.5404 21.5 11.0001 21.5ZM6.45843 16.8334H15.5418V8.75001C15.5418 7.49584 15.0984 6.42535 14.2116 5.53855C13.3248 4.65174 12.2543 4.20833 11.0001 4.20833C9.74594 4.20833 8.67546 4.65174 7.78866 5.53855C6.90184 6.42535 6.45843 7.49584 6.45843 8.75001V16.8334Z" fill="black"/>
</svg>
