<svg width="23" height="23" viewBox="0 0 23 23" fill="none" xmlns="http://www.w3.org/2000/svg">
<path d="M10.7814 16.0527H12.2189V10.5423H10.7814V16.0527ZM11.5001 8.90208C11.7195 8.90208 11.9033 8.82791 12.0516 8.67956C12.2 8.53121 12.2742 8.34738 12.2742 8.12806C12.2742 7.90876 12.2 7.72493 12.0516 7.57656C11.9033 7.42821 11.7195 7.35404 11.5001 7.35404C11.2808 7.35404 11.097 7.42821 10.9486 7.57656C10.8003 7.72493 10.7261 7.90876 10.7261 8.12806C10.7261 8.34738 10.8003 8.53121 10.9486 8.67956C11.097 8.82791 11.2808 8.90208 11.5001 8.90208ZM11.5017 20.6048C10.2426 20.6048 9.05898 20.3658 7.95102 19.8879C6.84305 19.41 5.87927 18.7615 5.05968 17.9423C4.24009 17.1231 3.59124 16.1597 3.11314 15.0522C2.63504 13.9447 2.396 12.7614 2.396 11.5022C2.396 10.243 2.63494 9.05947 3.11283 7.95151C3.59072 6.84353 4.23927 5.87976 5.05849 5.06017C5.87772 4.24057 6.84107 3.59173 7.94856 3.11363C9.05602 2.63553 10.2393 2.39648 11.4985 2.39648C12.7577 2.39648 13.9413 2.63543 15.0493 3.11332C16.1572 3.59121 17.121 4.23976 17.9406 5.05897C18.7602 5.87821 19.409 6.84156 19.8871 7.94904C20.3652 9.05651 20.6043 10.2398 20.6043 11.499C20.6043 12.7582 20.3653 13.9418 19.8874 15.0497C19.4096 16.1577 18.761 17.1215 17.9418 17.9411C17.1226 18.7607 16.1592 19.4095 15.0517 19.8876C13.9443 20.3657 12.7609 20.6048 11.5017 20.6048ZM11.5001 19.1673C13.6404 19.1673 15.4533 18.4246 16.9387 16.9392C18.4241 15.4538 19.1668 13.6409 19.1668 11.5006C19.1668 9.36035 18.4241 7.5475 16.9387 6.06209C15.4533 4.57667 13.6404 3.83396 11.5001 3.83396C9.35986 3.83396 7.54701 4.57667 6.0616 6.06209C4.57618 7.5475 3.83347 9.36035 3.83347 11.5006C3.83347 13.6409 4.57618 15.4538 6.0616 16.9392C7.54701 18.4246 9.35986 19.1673 11.5001 19.1673Z" fill="#4D4E58"/>
</svg>
