<svg width="20" height="20" viewBox="0 0 20 20" fill="none" xmlns="http://www.w3.org/2000/svg">
<g id="schedule_FILL1_wght300_GRAD0_opsz24 1">
<path id="Vector" d="M12.8939 13.7726L13.7721 12.8944L10.6246 9.74675V5.83348H9.37468V10.2534L12.8939 13.7726ZM10.001 17.9168C8.90611 17.9168 7.87691 17.709 6.91347 17.2935C5.95001 16.8779 5.11194 16.3139 4.39926 15.6016C3.68656 14.8892 3.12235 14.0515 2.70661 13.0885C2.29088 12.1255 2.08301 11.0965 2.08301 10.0015C2.08301 8.90659 2.29079 7.8774 2.70634 6.91396C3.1219 5.9505 3.68586 5.11243 4.39822 4.39975C5.11059 3.68705 5.94829 3.12284 6.91132 2.7071C7.87433 2.29137 8.90331 2.0835 9.99826 2.0835C11.0932 2.0835 12.1224 2.29127 13.0858 2.70683C14.0493 3.12239 14.8874 3.68634 15.6001 4.3987C16.3127 5.11108 16.877 5.94878 17.2927 6.91181C17.7084 7.87482 17.9163 8.9038 17.9163 9.99875C17.9163 11.0937 17.7085 12.1229 17.293 13.0863C16.8774 14.0498 16.3135 14.8879 15.6011 15.6005C14.8887 16.3132 14.051 16.8774 13.088 17.2932C12.125 17.7089 11.096 17.9168 10.001 17.9168Z" fill="black"/>
</g>
</svg>
