<svg width="36" height="36" viewBox="0 0 36 36" fill="none" xmlns="http://www.w3.org/2000/svg">
<circle cx="18" cy="18" r="18" fill="#5964E0"/>
<g clip-path="url(#clip0_717_21697)">
<mask id="path-2-inside-1_717_21697" fill="white">
<path d="M10.9621 14.4457C10.7389 14.5094 10.5362 14.6304 10.3741 14.7966C10.212 14.9628 10.096 15.1684 10.0378 15.3931C9.97952 15.6179 9.98095 15.8539 10.0419 16.0779C10.1029 16.3019 10.2213 16.5061 10.3855 16.6703L12.6601 18.9423V23.333H17.0555L19.3455 25.6197C19.4684 25.7436 19.6146 25.8421 19.7757 25.9093C19.9368 25.9766 20.1096 26.0114 20.2841 26.0117C20.3989 26.0114 20.5131 25.9966 20.6241 25.9677C20.8488 25.9111 21.0546 25.7963 21.2207 25.6349C21.3869 25.4735 21.5077 25.2712 21.5708 25.0483L25.9935 10.0137L10.9621 14.4457ZM11.3328 15.7277L22.6848 12.381L13.9948 21.057V18.3903L11.3328 15.7277ZM20.2928 24.677L17.6081 21.9997H14.9415L23.6301 13.3183L20.2928 24.677Z"/>
</mask>
<path d="M10.9621 14.4457L16.8231 34.9581L16.9094 34.9334L16.9955 34.9081L10.9621 14.4457ZM10.3855 16.6703L-4.70218 31.7526L-4.6964 31.7584L-4.69061 31.7641L10.3855 16.6703ZM12.6601 18.9423H33.9935V10.0984L27.7362 3.84853L12.6601 18.9423ZM12.6601 23.333H-8.6732V44.6663H12.6601V23.333ZM17.0555 23.333L32.1294 8.23705L25.8829 1.99966H17.0555V23.333ZM19.3455 25.6197L34.4948 10.5994L34.4572 10.5615L34.4194 10.5237L19.3455 25.6197ZM20.2841 26.0117L20.2517 47.345L20.2887 47.345L20.3256 47.3449L20.2841 26.0117ZM20.6241 25.9677L15.4136 5.28044L15.3235 5.30312L15.2336 5.32659L20.6241 25.9677ZM21.5708 25.0483L1.1046 19.0279L1.07433 19.1308L1.04509 19.234L21.5708 25.0483ZM25.9935 10.0137L46.4597 16.0341L57.5066 -21.5193L19.9601 -10.4487L25.9935 10.0137ZM11.3328 15.7277L5.30025 -4.73497L-29.1401 5.41833L-3.75402 30.8107L11.3328 15.7277ZM22.6848 12.381L37.7576 27.4781L16.6523 -8.08163L22.6848 12.381ZM13.9948 21.057H-7.33853V72.5015L29.0676 36.1541L13.9948 21.057ZM13.9948 18.3903H35.3281V9.55533L29.0816 3.30727L13.9948 18.3903ZM20.2928 24.677L5.22851 39.7826L30.643 65.1276L40.761 30.6908L20.2928 24.677ZM17.6081 21.9997L32.6724 6.89409L26.4276 0.666324H17.6081V21.9997ZM14.9415 21.9997L-0.137094 6.90834L-36.5926 43.333L14.9415 43.333V21.9997ZM23.6301 13.3183L44.0983 19.3322L8.55157 -1.77299L23.6301 13.3183ZM5.10116 -6.06677C1.30628 -4.98247 -2.13972 -2.92608 -4.89586 -0.101068L25.644 29.6942C23.2121 32.1869 20.1715 34.0014 16.8231 34.9581L5.10116 -6.06677ZM-4.89586 -0.101068C-7.65198 2.72393 -9.62272 6.21963 -10.613 10.0401L30.6886 20.7461C29.8148 24.1172 28.0759 27.2016 25.644 29.6942L-4.89586 -0.101068ZM-10.613 10.0401C-11.6034 13.8606 -11.579 17.8735 -10.5423 21.6817L30.6261 10.4742C31.5409 13.8343 31.5624 17.3751 30.6886 20.7461L-10.613 10.0401ZM-10.5423 21.6817C-9.50555 25.4898 -7.49245 28.9613 -4.70218 31.7526L25.4731 1.58809C27.9351 4.05097 29.7114 7.11404 30.6261 10.4742L-10.5423 21.6817ZM-4.69061 31.7641L-2.41595 34.0361L27.7362 3.84853L25.4616 1.57653L-4.69061 31.7641ZM-8.6732 18.9423V23.333H33.9935V18.9423H-8.6732ZM12.6601 44.6663H17.0555V1.99966H12.6601V44.6663ZM1.98153 38.4289L4.27153 40.7156L34.4194 10.5237L32.1294 8.23705L1.98153 38.4289ZM4.19614 40.6399C6.29855 42.7604 8.79933 44.4444 11.5547 45.595L27.9967 6.22366C30.4298 7.23978 32.6382 8.72684 34.4948 10.5994L4.19614 40.6399ZM11.5547 45.595C14.31 46.7457 17.2657 47.3404 20.2517 47.345L20.3166 4.67834C22.9534 4.68235 25.5635 5.20753 27.9967 6.22366L11.5547 45.595ZM20.3256 47.3449C22.2455 47.3412 24.1571 47.0938 26.0147 46.6087L15.2336 5.32659C16.8692 4.89946 18.5523 4.68164 20.2427 4.67836L20.3256 47.3449ZM25.8347 46.6549C29.6936 45.6829 33.2283 43.7115 36.0831 40.9392L6.35836 10.3306C8.88076 7.88108 12.004 6.13923 15.4136 5.28044L25.8347 46.6549ZM36.0831 40.9392C38.9379 38.1669 41.0119 34.6914 42.0965 30.8626L1.04509 19.234C2.00339 15.851 3.83599 12.7802 6.35836 10.3306L36.0831 40.9392ZM42.037 31.0688L46.4597 16.0341L5.52727 3.99323L1.1046 19.0279L42.037 31.0688ZM19.9601 -10.4487L4.92879 -6.01673L16.9955 34.9081L32.0268 30.4761L19.9601 -10.4487ZM17.3654 36.1903L28.7174 32.8436L16.6523 -8.08163L5.30025 -4.73497L17.3654 36.1903ZM7.61204 -2.71611L-1.07796 5.95988L29.0676 36.1541L37.7576 27.4781L7.61204 -2.71611ZM35.3281 21.057V18.3903H-7.33853V21.057H35.3281ZM29.0816 3.30727L26.4196 0.644601L-3.75402 30.8107L-1.09202 33.4734L29.0816 3.30727ZM35.3571 9.57142L32.6724 6.89409L2.54385 37.1052L5.22851 39.7826L35.3571 9.57142ZM17.6081 0.666324H14.9415V43.333H17.6081V0.666324ZM30.02 37.091L38.7087 28.4097L8.55157 -1.77299L-0.137094 6.90834L30.02 37.091ZM3.16199 7.3045L-0.17534 18.6632L40.761 30.6908L44.0983 19.3322L3.16199 7.3045Z" fill="white" mask="url(#path-2-inside-1_717_21697)"/>
</g>
<defs>
<clipPath id="clip0_717_21697">
<rect width="16" height="16" fill="white" transform="translate(10 10)"/>
</clipPath>
</defs>
</svg>
