<svg width="20" height="20" viewBox="0 0 20 20" fill="none" xmlns="http://www.w3.org/2000/svg">
<g clip-path="url(#clip0_408_39774)">
<path d="M9.99967 0.833496C7.56933 0.836133 5.23928 1.80588 3.52077 3.52997C1.80225 5.25407 0.835636 7.59168 0.833008 10.0299C1.29134 22.2152 18.708 22.2098 19.1663 10.0299C19.1637 7.59168 18.1971 5.25407 16.4786 3.52997C14.7601 1.80588 12.43 0.836133 9.99967 0.833496V0.833496ZM9.99967 17.6936C7.9744 17.6914 6.03271 16.8832 4.60062 15.4465C3.16853 14.0097 2.36301 12.0618 2.36079 10.0299C2.74273 -0.122931 17.2566 -0.119865 17.6386 10.0299C17.6363 12.0618 16.8308 14.0097 15.3987 15.4465C13.9666 16.8832 12.025 17.6914 9.99967 17.6936ZM6.18023 8.11399C6.18023 7.80911 6.30095 7.51672 6.51584 7.30113C6.73072 7.08555 7.02217 6.96444 7.32606 6.96444C7.62996 6.96444 7.9214 7.08555 8.13629 7.30113C8.35117 7.51672 8.4719 7.80911 8.4719 8.11399C8.4719 8.41887 8.35117 8.71126 8.13629 8.92684C7.9214 9.14243 7.62996 9.26354 7.32606 9.26354C7.02217 9.26354 6.73072 9.14243 6.51584 8.92684C6.30095 8.71126 6.18023 8.41887 6.18023 8.11399ZM11.5275 8.11399C11.5275 7.80911 11.6482 7.51672 11.8631 7.30113C12.0779 7.08555 12.3694 6.96444 12.6733 6.96444C12.9772 6.96444 13.2686 7.08555 13.4835 7.30113C13.6984 7.51672 13.8191 7.80911 13.8191 8.11399C13.8191 8.41887 13.6984 8.71126 13.4835 8.92684C13.2686 9.14243 12.9772 9.26354 12.6733 9.26354C12.3694 9.26354 12.0779 9.14243 11.8631 8.92684C11.6482 8.71126 11.5275 8.41887 11.5275 8.11399ZM14.4623 12.7444C14.0135 13.5382 13.3655 14.2005 12.5826 14.6654C11.7998 15.1303 10.9093 15.3816 9.99967 15.3945C9.08941 15.3817 8.19829 15.1305 7.41468 14.6656C6.63107 14.2007 5.98221 13.5384 5.53245 12.7444C5.45124 12.6172 5.40929 12.4688 5.41189 12.3178C5.41448 12.1667 5.4615 12.0199 5.54703 11.8956C5.63257 11.7713 5.75281 11.6751 5.89264 11.6191C6.03248 11.5632 6.18568 11.5499 6.33301 11.581C7.50763 12.025 8.7455 12.2775 9.99967 12.329C11.2518 12.2769 12.4875 12.0244 13.6602 11.581C13.8077 11.5495 13.9611 11.5625 14.1012 11.6183C14.2413 11.6741 14.3618 11.7703 14.4476 11.8946C14.5333 12.019 14.5805 12.1661 14.5831 12.3173C14.5857 12.4685 14.5437 12.6171 14.4623 12.7444Z" fill="url(#paint0_linear_408_39774)"/>
</g>
<defs>
<linearGradient id="paint0_linear_408_39774" x1="0.833008" y1="0.833496" x2="19.9107" y2="1.64392" gradientUnits="userSpaceOnUse">
<stop stop-color="#947DFF"/>
<stop offset="0.445778" stop-color="#5C90B3"/>
<stop offset="1" stop-color="#4EB26A"/>
</linearGradient>
<clipPath id="clip0_408_39774">
<rect width="20" height="20" fill="white"/>
</clipPath>
</defs>
</svg>
