<svg width="116" height="90" viewBox="0 0 116 90" fill="none" xmlns="http://www.w3.org/2000/svg">
<g clip-path="url(#clip0_508_58529)">
<path d="M57.6544 49.4326C49.4427 26.4755 37.3135 41.2855 37.3135 41.2855C47.2041 44.0617 57.1701 69.8698 57.1701 69.8698C74.3173 22.9785 109.532 0 109.532 0C79.2385 7.74136 57.6544 49.4326 57.6544 49.4326Z" fill="#5964E0"/>
<path d="M62.8041 83.3502C33.4254 83.3502 9.60814 66.8637 9.60814 46.5253C9.60814 26.1869 32.1581 10.5947 60.4417 9.7405C59.6318 9.71647 58.8166 9.70313 57.9986 9.70313C25.967 9.70046 0 27.6764 0 49.8514C0 72.0264 25.967 89.9997 57.9986 89.9997C90.0303 89.9997 115.997 72.0238 115.997 49.8514C115.997 49.2855 115.976 48.7223 115.943 48.159C114.708 67.7393 91.3917 83.3502 62.8014 83.3502H62.8041Z" fill="#5964E0"/>
<path d="M30.9014 18.8945C38.54 15.7152 47.4782 13.8786 57.0433 13.8786C63.7832 13.8786 70.2111 14.7942 76.0954 16.4439C77.1421 15.3548 78.2237 14.279 79.3322 13.2166C74.0748 11.9406 68.4245 11.2412 62.5375 11.2412C50.5751 11.2412 39.5813 14.1028 30.9041 18.8918L30.9014 18.8945ZM94.4023 19.0306C93.2507 20.2239 92.0695 21.4838 90.8669 22.8159C101.282 29.2546 107.842 38.6189 107.842 49.0457C107.842 60.1906 100.349 70.1183 88.6632 76.5623C103.44 70.4146 113.333 59.2163 113.333 46.411C113.333 35.3462 105.942 25.48 94.3996 19.0333L94.4023 19.0306Z" fill="#F3F4FF"/>
</g>
<defs>
<clipPath id="clip0_508_58529">
<rect width="116" height="90" fill="white"/>
</clipPath>
</defs>
</svg>
