<svg width="59" height="59" viewBox="0 0 59 59" fill="none" xmlns="http://www.w3.org/2000/svg">
<circle cx="29.5" cy="29.5" r="29.5" fill="#FFF1DB"/>
<path d="M23.308 35.125L26.9642 29.5L26.3877 30.3718C26.0033 30.9531 25.5861 31.5953 25.1361 32.2984C24.6861 33.0015 24.2689 33.6484 23.8845 34.239L23.308 35.125ZM20.2402 36.8124L24.9349 29.5L20.2402 22.1875H32.3555C32.7449 22.1875 33.1109 22.2755 33.4535 22.4515C33.796 22.6274 34.0777 22.8726 34.2983 23.187L38.5344 29.1711C38.1651 29.037 37.7819 28.9364 37.3845 28.8694C36.9872 28.8023 36.5924 28.7745 36.2 28.786L32.8964 24.1563C32.8315 24.0697 32.7558 24.0012 32.6693 23.9507C32.5827 23.9002 32.4781 23.875 32.3555 23.875H23.308L26.9642 29.5L23.308 35.125H28.8162C28.7671 35.4062 28.7426 35.6857 28.7426 35.9633C28.7426 36.2409 28.7563 36.524 28.7837 36.8124H20.2402ZM35.4883 38.5432L39.0406 35.0298L38.0974 34.0865L35.4883 36.6502L34.4022 35.5533L33.459 36.5139L35.4883 38.5432ZM36.2498 41.3773C34.845 41.3773 33.6501 40.8848 32.665 39.8997C31.6799 38.9146 31.1873 37.7197 31.1873 36.3149C31.1873 34.9101 31.6799 33.7151 32.665 32.73C33.6501 31.745 34.845 31.2524 36.2498 31.2524C37.6546 31.2524 38.8495 31.745 39.8346 32.73C40.8197 33.7151 41.3123 34.9101 41.3123 36.3149C41.3123 37.7197 40.8197 38.9146 39.8346 39.8997C38.8495 40.8848 37.6546 41.3773 36.2498 41.3773Z" fill="#FFA114"/>
</svg>
